<?xml version="1.0" encoding="UTF-8"?>
<svg enable-background="new 0 0 1614.911 1744.783" version="1.1" viewBox="0 0 1614.911 1744.783" xml:space="preserve" xmlns="http://www.w3.org/2000/svg">
	<path d="m1547.1 635.94c-1.434-41.905-7.077-94.733-30.374-99.438-63.202-12.764-18.01 260.22-127.66 320.32-94.956 52.055-34.171 82.062-336.71-132.76-127.62-90.615-152.77-43.432-200.21-37.029-27.479 3.71-54.309-8.164-81.28-14.602-66.048-15.766-110.4 43.896-164.3 71.699-25.689 13.251-54.042 20.7-79.795 33.825-39.358 20.058-51.641 58.34-84.942 84.463-31.21 24.482-64.463 52.029-105.72 54.375-123.26 7.007-195.46-221.2-200.97-344.3-4.855-108.43-148.71-37.388-3.109 468.3 48.537 168.58 331.64 447.68 478.39 545 106.49 70.62 203.23 110.3 330.28 71.246 156.26-48.034 243-176.35 338.06-297.54 201.15-256.42 278.27-433.2 268.34-723.56zm-539.36 436.17c5.004-16.058 15.607-7.234-30.333-35.064-177.71-107.65-213.12-44.528-288.82-2.219-20.784 11.616-12.705 18.998-14.247 38.975-3.155 40.768-92.165 1.817-107.34-11.95-32.727-29.695-6.77-102.46 9.084-134.05 74.538-148.52 184.05-141.34 270.17-146.45 114.24-6.773 166.45 19.43 235.47 145.92 80.025 146.67-85.713 182.48-73.982 144.84z"/>
	<path d="m871.36 113.73c275.62-66.24 610.01-36.266 622.9-15.014 18.113 29.87 8.134 70.294-16.099 84.727-80.322 47.839-32.364 264.62-167.41 289.11-337.59 61.22-391.16-39.358-446.4-231.02-8.895-30.86-50.841-29.391-82.809-24.415-13.858 2.157-22.962 8.56-27.288 23.113-11.64 39.154-28.717 76.392-42.418 114.8-25.72 72.101-76.802 112.24-151.1 123.53-41.294 6.275-122.8 25.564-269.53-10.212-44.583-10.87-73.34-73.381-85.176-120.92-29.826-119.8-26.527-136.44-64.983-164.38-25.64-18.623-32.301-89.002 7.261-94.163 441.36-57.569 591.09 56.561 723.06 24.844z"/>
</svg>
