<svg width="119" height="40" viewBox="0 0 119 40" fill="none" xmlns="http://www.w3.org/2000/svg">
<path d="M109.524 0.00013H9.48177C9.1171 0.00013 8.75681 0.00013 8.39311 0.00212999C8.08866 0.00412999 7.78664 0.00993997 7.47926 0.01483C6.8115 0.0227317 6.14531 0.081806 5.48648 0.191539C4.82858 0.303662 4.19128 0.515044 3.59615 0.818537C3.00175 1.1246 2.45862 1.52229 1.98648 1.99719C1.51187 2.47076 1.11623 3.01814 0.814803 3.61828C0.51254 4.21723 0.30295 4.85905 0.193271 5.52159C0.0825503 6.1833 0.0229702 6.85263 0.0150659 7.52359C0.00583743 7.83018 0.00486286 8.1378 0 8.44444V31.5586C0.00486286 31.8691 0.00583743 32.1699 0.0150659 32.4805C0.0229726 33.1514 0.0825527 33.8207 0.193271 34.4824C0.302647 35.1453 0.51225 35.7875 0.814803 36.3867C1.1161 36.9849 1.51178 37.5301 1.98648 38.001C2.45683 38.478 3.00031 38.876 3.59615 39.1797C4.19128 39.484 4.82851 39.6967 5.48648 39.8105C6.14542 39.9194 6.81155 39.9785 7.47926 39.9873C7.78664 39.9941 8.08866 39.998 8.39311 39.998C8.7568 40 9.11712 40 9.48177 40H109.524C109.881 40 110.244 40 110.602 39.998C110.905 39.998 111.215 39.9941 111.518 39.9873C112.185 39.9789 112.85 39.9198 113.507 39.8105C114.167 39.6959 114.807 39.4833 115.405 39.1797C116 38.8758 116.543 38.4779 117.013 38.001C117.487 37.5282 117.883 36.9835 118.188 36.3867C118.488 35.7871 118.696 35.145 118.804 34.4824C118.915 33.8207 118.976 33.1515 118.988 32.4805C118.992 32.1699 118.992 31.8691 118.992 31.5586C119 31.1953 119 30.834 119 30.4648V9.53623C119 9.17002 119 8.80674 118.992 8.44444C118.992 8.1378 118.992 7.83018 118.988 7.52355C118.976 6.85253 118.915 6.18335 118.804 5.52155C118.696 4.8594 118.488 4.21762 118.188 3.61824C117.574 2.41532 116.601 1.43615 115.405 0.818447C114.807 0.515696 114.167 0.304369 113.507 0.191449C112.85 0.0812325 112.185 0.0221377 111.518 0.01469C111.215 0.00980997 110.905 0.00394999 110.602 0.00199999C110.244 0 109.881 0 109.524 0V0.00013Z" fill="#A6A6A6"/>
<path d="M8.39794 39.125C8.09495 39.125 7.79928 39.1211 7.49866 39.1143C6.87592 39.1062 6.25463 39.0517 5.6399 38.9512C5.06669 38.852 4.5114 38.6673 3.99235 38.4033C3.47806 38.1416 3.00899 37.7983 2.6031 37.3867C2.19134 36.98 1.84853 36.5083 1.58826 35.9902C1.32511 35.4688 1.143 34.9099 1.04827 34.333C0.945964 33.7132 0.890613 33.0864 0.882692 32.4581C0.876388 32.2472 0.868134 31.545 0.868134 31.545V8.44445C0.868134 8.44445 0.876925 7.75304 0.882742 7.54991C0.890326 6.92259 0.945355 6.29676 1.04735 5.67784C1.14226 5.09936 1.32451 4.53886 1.5878 4.01574C1.84712 3.49806 2.18802 3.02598 2.5973 2.6178C3.00613 2.20574 3.4767 1.86072 3.99186 1.59533C4.50972 1.33221 5.06396 1.14885 5.63601 1.05139C6.25276 0.949958 6.87621 0.895118 7.50111 0.887332L8.39842 0.875122H110.597L111.505 0.887822C112.124 0.895221 112.742 0.949572 113.353 1.05041C113.931 1.1491 114.491 1.33374 115.014 1.59826C116.047 2.13311 116.886 2.97928 117.416 4.01819C117.675 4.53769 117.855 5.09362 117.948 5.6671C118.051 6.2911 118.109 6.92185 118.121 7.55431C118.124 7.83751 118.124 8.14171 118.124 8.44445C118.132 8.81944 118.132 9.17637 118.132 9.53623V30.4649C118.132 30.8282 118.132 31.1827 118.124 31.5401C118.124 31.8653 118.124 32.1632 118.12 32.4698C118.109 33.0909 118.052 33.7104 117.95 34.3232C117.857 34.9043 117.676 35.4676 117.413 35.9932C117.151 36.5057 116.81 36.9733 116.403 37.3789C115.997 37.7927 115.527 38.138 115.012 38.4014C114.489 38.6674 113.93 38.8528 113.353 38.9512C112.738 39.0522 112.117 39.1067 111.494 39.1143C111.203 39.1211 110.898 39.125 110.602 39.125L109.524 39.127L8.39794 39.125Z" fill="black"/>
<path d="M24.6314 20.3007C24.6421 19.4661 24.8626 18.6477 25.2723 17.9217C25.6821 17.1958 26.2678 16.5858 26.9749 16.1486C26.5257 15.5035 25.933 14.9725 25.2441 14.598C24.5551 14.2234 23.7887 14.0156 23.0059 13.991C21.336 13.8147 19.7171 14.9958 18.8661 14.9958C17.9987 14.9958 16.6885 14.0085 15.2776 14.0376C14.365 14.0673 13.4757 14.3341 12.6961 14.8122C11.9166 15.2903 11.2735 15.9632 10.8295 16.7655C8.90626 20.114 10.3408 25.035 12.1832 27.7417C13.1049 29.067 14.1822 30.5475 15.5918 30.495C16.9711 30.4375 17.4863 29.6105 19.1513 29.6105C20.8009 29.6105 21.2842 30.495 22.7224 30.4616C24.2025 30.4374 25.1351 29.1304 26.0245 27.7924C26.6868 26.8481 27.1964 25.8044 27.5345 24.6999C26.6746 24.3342 25.9407 23.722 25.4245 22.9397C24.9082 22.1574 24.6324 21.2396 24.6314 20.3007Z" fill="white"/>
<path d="M21.9149 12.2111C22.722 11.2369 23.1195 9.98468 23.0233 8.72046C21.7903 8.85068 20.6514 9.44323 19.8335 10.3801C19.4336 10.8377 19.1273 11.3702 18.9321 11.9469C18.737 12.5237 18.6568 13.1335 18.6961 13.7414C19.3128 13.7478 19.9229 13.6134 20.4805 13.3483C21.038 13.0832 21.5285 12.6944 21.9149 12.2111Z" fill="white"/>
<path d="M42.0675 27.1397H37.3604L36.23 30.4962H34.2362L38.6947 18.0781H40.7662L45.2247 30.4962H43.1969L42.0675 27.1397ZM37.8479 25.5909H41.5791L39.7397 20.1436H39.6882L37.8479 25.5909Z" fill="white"/>
<path d="M54.8536 25.9698C54.8536 28.7833 53.3561 30.5909 51.0962 30.5909C50.5238 30.621 49.9545 30.4884 49.4535 30.2083C48.9525 29.9282 48.5401 29.5118 48.2634 29.0069H48.2207V33.4913H46.3726V21.4425H48.1615V22.9483H48.1954C48.4848 22.4459 48.9042 22.0317 49.409 21.7498C49.9138 21.468 50.4852 21.329 51.0623 21.3477C53.3473 21.3477 54.8536 23.1642 54.8536 25.9698ZM52.954 25.9698C52.954 24.1368 52.012 22.9317 50.5747 22.9317C49.1627 22.9317 48.2129 24.1622 48.2129 25.9698C48.2129 27.7941 49.1627 29.0157 50.5747 29.0157C52.012 29.0157 52.954 27.8194 52.954 25.9698Z" fill="white"/>
<path d="M64.7631 25.9698C64.7631 28.7833 63.2656 30.5909 61.0058 30.5909C60.4333 30.621 59.864 30.4884 59.363 30.2083C58.862 29.9282 58.4496 29.5118 58.173 29.0069H58.1302V33.4913H56.2821V21.4425H58.071V22.9483H58.105C58.3943 22.4459 58.8137 22.0317 59.3185 21.7498C59.8233 21.468 60.3947 21.329 60.9718 21.3477C63.2569 21.3477 64.7631 23.1641 64.7631 25.9698ZM62.8636 25.9698C62.8636 24.1368 61.9216 22.9317 60.4843 22.9317C59.0722 22.9317 58.1225 24.1622 58.1225 25.9698C58.1225 27.7941 59.0722 29.0157 60.4843 29.0157C61.9216 29.0157 62.8636 27.8194 62.8636 25.9698H62.8636Z" fill="white"/>
<path d="M71.3125 27.0362C71.4494 28.2676 72.6391 29.0761 74.2648 29.0761C75.8225 29.0761 76.9432 28.2676 76.9432 27.1572C76.9432 26.1933 76.2673 25.6162 74.6668 25.2207L73.0664 24.833C70.7988 24.2822 69.746 23.2158 69.746 21.4853C69.746 19.3428 71.6029 17.8711 74.2395 17.8711C76.849 17.8711 78.6378 19.3428 78.698 21.4853H76.8325C76.7208 20.2461 75.702 19.498 74.2133 19.498C72.7245 19.498 71.7058 20.2549 71.7058 21.3564C71.7058 22.2344 72.3565 22.751 73.9482 23.1464L75.3087 23.4824C77.8424 24.0849 78.8952 25.1084 78.8952 26.9247C78.8952 29.248 77.0548 30.703 74.1278 30.703C71.3892 30.703 69.5401 29.2822 69.4207 27.0361L71.3125 27.0362Z" fill="white"/>
<path d="M82.8837 19.2999V21.4425H84.5958V22.9142H82.8837V27.9054C82.8837 28.6808 83.2265 29.0421 83.9791 29.0421C84.1824 29.0385 84.3853 29.0242 84.5871 28.9991V30.462C84.2487 30.5256 83.9047 30.5544 83.5606 30.5479C81.7377 30.5479 81.0268 29.8594 81.0268 28.1036V22.9142H79.7177V21.4425H81.0268V19.2999H82.8837Z" fill="white"/>
<path d="M85.5874 25.9699C85.5874 23.1212 87.2558 21.3312 89.8575 21.3312C92.468 21.3312 94.1286 23.1212 94.1286 25.9699C94.1286 28.8263 92.4767 30.6085 89.8575 30.6085C87.2393 30.6085 85.5874 28.8263 85.5874 25.9699ZM92.2456 25.9699C92.2456 24.0157 91.355 22.8624 89.8575 22.8624C88.36 22.8624 87.4704 24.0245 87.4704 25.9699C87.4704 27.9318 88.36 29.0763 89.8575 29.0763C91.355 29.0763 92.2455 27.9318 92.2455 25.9699H92.2456Z" fill="white"/>
<path d="M95.6523 21.4425H97.4149V22.9835H97.4577C97.5769 22.5022 97.8573 22.0769 98.2517 21.779C98.6461 21.4811 99.1305 21.3288 99.6233 21.3478C99.8363 21.347 100.049 21.3703 100.257 21.4171V23.1554C99.9877 23.0728 99.7072 23.0348 99.4262 23.0431C99.1577 23.0321 98.89 23.0797 98.6416 23.1826C98.3931 23.2855 98.1697 23.4413 97.9868 23.6391C97.8038 23.837 97.6656 24.0724 97.5817 24.3291C97.4977 24.5857 97.47 24.8576 97.5004 25.1261V30.4963H95.6523L95.6523 21.4425Z" fill="white"/>
<path d="M108.777 27.837C108.529 29.4805 106.937 30.6084 104.9 30.6084C102.281 30.6084 100.656 28.8438 100.656 26.0128C100.656 23.173 102.29 21.3312 104.823 21.3312C107.314 21.3312 108.88 23.0519 108.88 25.7969V26.4337H102.521V26.546C102.492 26.8792 102.533 27.2148 102.643 27.5307C102.752 27.8465 102.928 28.1353 103.157 28.3778C103.386 28.6204 103.664 28.8111 103.972 28.9374C104.28 29.0637 104.611 29.1227 104.943 29.1104C105.38 29.1515 105.818 29.0498 106.193 28.8204C106.567 28.5909 106.858 28.246 107.022 27.837L108.777 27.837ZM102.53 25.1348H107.031C107.048 24.8353 107.003 24.5354 106.898 24.2542C106.794 23.973 106.634 23.7165 106.426 23.5007C106.219 23.285 105.969 23.1146 105.693 23.0004C105.418 22.8862 105.121 22.8306 104.823 22.837C104.522 22.8352 104.223 22.8934 103.945 23.0081C103.667 23.1228 103.413 23.2919 103.2 23.5055C102.987 23.7192 102.818 23.9731 102.703 24.2528C102.588 24.5324 102.529 24.8322 102.53 25.1349V25.1348Z" fill="white"/>
<path d="M37.6163 8.73114C38.0037 8.70318 38.3925 8.76204 38.7546 8.90347C39.1167 9.0449 39.4431 9.26538 39.7102 9.549C39.9773 9.83262 40.1785 10.1723 40.2992 10.5436C40.4199 10.9148 40.4572 11.3084 40.4083 11.6959C40.4083 13.6022 39.3838 14.6979 37.6163 14.6979H35.473V8.73114H37.6163ZM36.3946 13.8541H37.5133C37.7902 13.8707 38.0673 13.8251 38.3244 13.7205C38.5815 13.6158 38.8122 13.4549 38.9996 13.2493C39.1871 13.0438 39.3266 12.7988 39.408 12.5322C39.4894 12.2655 39.5106 11.984 39.4702 11.7081C39.5077 11.4333 39.4843 11.1535 39.4016 10.8888C39.319 10.6242 39.1791 10.3812 38.9921 10.1773C38.8051 9.97333 38.5755 9.81352 38.3199 9.70928C38.0642 9.60505 37.7888 9.55897 37.5133 9.57434H36.3946V13.8541Z" fill="white"/>
<path d="M41.4494 12.4444C41.4213 12.1485 41.4549 11.8499 41.5482 11.5678C41.6416 11.2858 41.7925 11.0264 41.9913 10.8065C42.1901 10.5865 42.4325 10.4107 42.7028 10.2904C42.9732 10.1702 43.2655 10.108 43.5612 10.108C43.8568 10.108 44.1491 10.1702 44.4195 10.2904C44.6898 10.4107 44.9322 10.5865 45.131 10.8065C45.3298 11.0264 45.4808 11.2858 45.5741 11.5678C45.6674 11.8499 45.7011 12.1485 45.6729 12.4444C45.7016 12.7406 45.6683 13.0396 45.5753 13.3221C45.4822 13.6046 45.3314 13.8644 45.1325 14.0848C44.9336 14.3052 44.6911 14.4814 44.4204 14.6019C44.1498 14.7224 43.8571 14.7847 43.5612 14.7847C43.2652 14.7847 42.9725 14.7224 42.7019 14.6019C42.4313 14.4814 42.1887 14.3052 41.9898 14.0848C41.791 13.8644 41.6401 13.6046 41.5471 13.3221C41.454 13.0396 41.4207 12.7406 41.4494 12.4444ZM44.7639 12.4444C44.7639 11.4683 44.3279 10.8975 43.5626 10.8975C42.7944 10.8975 42.3623 11.4683 42.3623 12.4444C42.3623 13.4283 42.7945 13.9947 43.5626 13.9947C44.3279 13.9946 44.7639 13.4243 44.7639 12.4444H44.7639Z" fill="white"/>
<path d="M51.287 14.6979H50.3703L49.4448 11.3815H49.3749L48.4533 14.6979H47.5452L46.3109 10.1949H47.2073L48.0094 13.631H48.0755L48.9961 10.1949H49.8439L50.7646 13.631H50.8345L51.6328 10.1949H52.5165L51.287 14.6979Z" fill="white"/>
<path d="M53.5547 10.1949H54.4054V10.9102H54.4715C54.5835 10.6533 54.7724 10.4379 55.012 10.2941C55.2515 10.1503 55.5297 10.0852 55.8078 10.1079C56.0256 10.0915 56.2444 10.1245 56.4479 10.2046C56.6514 10.2847 56.8343 10.4098 56.9831 10.5707C57.132 10.7315 57.243 10.924 57.3078 11.1338C57.3726 11.3436 57.3897 11.5654 57.3577 11.7828V14.6979H56.474V12.006C56.474 11.2823 56.1613 10.9224 55.5077 10.9224C55.3597 10.9155 55.2121 10.9408 55.0748 10.9966C54.9375 11.0525 54.8138 11.1375 54.7123 11.2459C54.6107 11.3543 54.5337 11.4835 54.4864 11.6246C54.4391 11.7657 54.4228 11.9155 54.4384 12.0636V14.6979H53.5547L53.5547 10.1949Z" fill="white"/>
<path d="M58.7658 8.43713H59.6496V14.6979H58.7658V8.43713Z" fill="white"/>
<path d="M60.8781 12.4444C60.8499 12.1485 60.8836 11.8499 60.977 11.5678C61.0703 11.2857 61.2212 11.0264 61.4201 10.8064C61.6189 10.5864 61.8613 10.4106 62.1317 10.2903C62.402 10.17 62.6944 10.1079 62.9901 10.1079C63.2857 10.1079 63.5781 10.17 63.8484 10.2903C64.1188 10.4106 64.3612 10.5864 64.56 10.8064C64.7589 11.0264 64.9098 11.2857 65.0031 11.5678C65.0965 11.8499 65.1302 12.1485 65.102 12.4444C65.1307 12.7407 65.0974 13.0396 65.0043 13.3222C64.9112 13.6047 64.7603 13.8645 64.5614 14.0849C64.3625 14.3053 64.12 14.4815 63.8494 14.602C63.5787 14.7225 63.286 14.7848 62.9901 14.7848C62.6941 14.7848 62.4014 14.7225 62.1307 14.602C61.8601 14.4815 61.6176 14.3053 61.4187 14.0849C61.2198 13.8645 61.0689 13.6047 60.9758 13.3222C60.8827 13.0396 60.8494 12.7407 60.8781 12.4444ZM64.1926 12.4444C64.1926 11.4683 63.7565 10.8975 62.9913 10.8975C62.2231 10.8975 61.791 11.4683 61.791 12.4444C61.791 13.4283 62.2231 13.9947 62.9913 13.9947C63.7565 13.9947 64.1926 13.4244 64.1926 12.4444H64.1926Z" fill="white"/>
<path d="M66.0324 13.4244C66.0324 12.6138 66.6326 12.1465 67.6979 12.0801L68.9109 12.0098V11.6211C68.9109 11.1455 68.5982 10.877 67.9941 10.877C67.5008 10.877 67.1589 11.0591 67.0609 11.3775H66.2053C66.2956 10.604 67.0191 10.1079 68.0349 10.1079C69.1576 10.1079 69.7907 10.6699 69.7907 11.6211V14.6979H68.94V14.065H68.8701C68.7282 14.292 68.5289 14.4771 68.2926 14.6013C68.0563 14.7255 67.7914 14.7844 67.5251 14.7721C67.3371 14.7917 67.1471 14.7716 66.9673 14.7129C66.7876 14.6542 66.622 14.5582 66.4814 14.4313C66.3408 14.3043 66.2282 14.1491 66.1508 13.9757C66.0735 13.8022 66.0332 13.6145 66.0324 13.4244ZM68.9109 13.0396V12.6631L67.8174 12.7335C67.2007 12.775 66.921 12.9859 66.921 13.3829C66.921 13.7882 67.2706 14.024 67.7514 14.024C67.8922 14.0383 68.0345 14.024 68.1698 13.982C68.305 13.9399 68.4305 13.8708 68.5386 13.779C68.6468 13.6872 68.7355 13.5744 68.7995 13.4473C68.8634 13.3203 68.9013 13.1817 68.9109 13.0396Z" fill="white"/>
<path d="M70.9522 12.4445C70.9522 11.0216 71.6796 10.1203 72.811 10.1203C73.0908 10.1073 73.3686 10.1747 73.6117 10.3146C73.8549 10.4545 74.0535 10.6611 74.1842 10.9103H74.2502V8.43713H75.134V14.6979H74.2871V13.9865H74.2172C74.0764 14.234 73.8709 14.438 73.623 14.5765C73.3752 14.715 73.0943 14.7826 72.811 14.7721C71.6718 14.7722 70.9522 13.8708 70.9522 12.4445ZM71.8651 12.4445C71.8651 13.3996 72.3128 13.9743 73.0616 13.9743C73.8064 13.9743 74.2668 13.3913 74.2668 12.4484C74.2668 11.5099 73.8016 10.9186 73.0616 10.9186C72.3176 10.9186 71.8651 11.4972 71.8651 12.4445H71.8651Z" fill="white"/>
<path d="M78.7904 12.4444C78.7622 12.1485 78.7959 11.8499 78.8892 11.5678C78.9825 11.2858 79.1334 11.0264 79.3323 10.8065C79.5311 10.5865 79.7734 10.4107 80.0438 10.2904C80.3141 10.1702 80.6065 10.108 80.9021 10.108C81.1977 10.108 81.4901 10.1702 81.7604 10.2904C82.0308 10.4107 82.2731 10.5865 82.4719 10.8065C82.6708 11.0264 82.8217 11.2858 82.915 11.5678C83.0083 11.8499 83.042 12.1485 83.0138 12.4444C83.0425 12.7406 83.0093 13.0396 82.9162 13.3221C82.8231 13.6046 82.6723 13.8644 82.4734 14.0848C82.2745 14.3052 82.032 14.4814 81.7614 14.6019C81.4908 14.7224 81.1981 14.7847 80.9021 14.7847C80.6061 14.7847 80.3134 14.7224 80.0428 14.6019C79.7722 14.4814 79.5297 14.3052 79.3308 14.0848C79.1319 13.8644 78.9811 13.6046 78.888 13.3221C78.7949 13.0396 78.7617 12.7406 78.7904 12.4444ZM82.1049 12.4444C82.1049 11.4683 81.6688 10.8975 80.9036 10.8975C80.1354 10.8975 79.7033 11.4683 79.7033 12.4444C79.7033 13.4283 80.1354 13.9947 80.9036 13.9947C81.6688 13.9946 82.1049 13.4243 82.1049 12.4444Z" fill="white"/>
<path d="M84.1996 10.1949H85.0503V10.9102H85.1164C85.2284 10.6533 85.4173 10.4379 85.6569 10.2941C85.8964 10.1503 86.1746 10.0852 86.4527 10.1079C86.6705 10.0915 86.8893 10.1245 87.0928 10.2046C87.2963 10.2847 87.4792 10.4098 87.628 10.5707C87.7769 10.7315 87.8879 10.924 87.9527 11.1338C88.0175 11.3436 88.0346 11.5654 88.0026 11.7828V14.6979H87.1189V12.006C87.1189 11.2823 86.8062 10.9224 86.1526 10.9224C86.0046 10.9155 85.857 10.9408 85.7197 10.9966C85.5824 11.0525 85.4587 11.1375 85.3572 11.2459C85.2556 11.3543 85.1785 11.4835 85.1313 11.6246C85.084 11.7657 85.0677 11.9155 85.0833 12.0636V14.6979H84.1996V10.1949Z" fill="white"/>
<path d="M92.9962 9.07385V10.2155H93.9664V10.964H92.9962V13.2794C92.9962 13.7511 93.1894 13.9576 93.6294 13.9576C93.742 13.9573 93.8545 13.9504 93.9664 13.9371V14.6774C93.8077 14.7059 93.6469 14.7211 93.4856 14.7228C92.5028 14.7228 92.1115 14.3751 92.1115 13.507V10.964H91.4006V10.2154H92.1115V9.07385H92.9962Z" fill="white"/>
<path d="M95.1735 8.43713H96.0495V10.9186H96.1194C96.2369 10.6593 96.431 10.4427 96.6753 10.2983C96.9197 10.154 97.2023 10.0889 97.4848 10.1119C97.7015 10.1001 97.9182 10.1365 98.1194 10.2185C98.3205 10.3006 98.5012 10.4262 98.6485 10.5866C98.7958 10.7469 98.9061 10.938 98.9715 11.1461C99.0369 11.3542 99.0559 11.5743 99.027 11.7907V14.6979H98.1423V12.0099C98.1423 11.2906 97.8092 10.9264 97.1848 10.9264C97.0329 10.9139 96.8801 10.9349 96.7371 10.9879C96.5941 11.041 96.4644 11.1248 96.357 11.2335C96.2496 11.3423 96.1672 11.4733 96.1154 11.6174C96.0636 11.7616 96.0438 11.9153 96.0573 12.068V14.6979H95.1735L95.1735 8.43713Z" fill="white"/>
<path d="M104.18 13.4821C104.06 13.8936 103.8 14.2496 103.445 14.4878C103.09 14.7259 102.664 14.8311 102.24 14.7848C101.945 14.7926 101.651 14.7358 101.38 14.6183C101.109 14.5008 100.867 14.3253 100.67 14.1042C100.473 13.8831 100.327 13.6215 100.241 13.3377C100.154 13.0538 100.131 12.7545 100.171 12.4606C100.132 12.1657 100.156 11.8657 100.242 11.5811C100.328 11.2964 100.474 11.0336 100.67 10.8105C100.865 10.5875 101.106 10.4093 101.377 10.2881C101.647 10.1669 101.94 10.1054 102.236 10.108C103.482 10.108 104.233 10.964 104.233 12.378V12.6881H101.071V12.7379C101.057 12.9032 101.078 13.0695 101.132 13.2263C101.186 13.383 101.272 13.5267 101.384 13.6482C101.496 13.7696 101.632 13.8662 101.784 13.9316C101.935 13.997 102.099 14.0298 102.264 14.0279C102.475 14.0535 102.689 14.0152 102.879 13.918C103.069 13.8208 103.225 13.669 103.329 13.482L104.18 13.4821ZM101.071 12.0309H103.333C103.344 11.8797 103.324 11.7279 103.273 11.5852C103.222 11.4425 103.143 11.312 103.039 11.2022C102.935 11.0923 102.809 11.0055 102.67 10.9473C102.531 10.8891 102.381 10.8609 102.231 10.8643C102.078 10.8624 101.926 10.8913 101.785 10.9492C101.643 11.0072 101.514 11.093 101.406 11.2017C101.298 11.3105 101.213 11.4398 101.155 11.5822C101.098 11.7246 101.069 11.8772 101.071 12.0309H101.071Z" fill="white"/>
</svg>
