<svg width="72" height="72" viewBox="0 0 72 72" fill="none" xmlns="http://www.w3.org/2000/svg">
<circle cx="36" cy="36" r="36" fill="#F61067" fill-opacity="0.02"/>
<circle cx="36" cy="36" r="35.5" stroke="#F61067" stroke-opacity="0.5"/>
<path d="M36.4999 33.0535C34.6388 33.0535 33.1243 34.5675 33.1243 36.4285C33.1243 38.2896 34.6388 39.8035 36.4999 39.8035C38.361 39.8035 39.8755 38.2896 39.8755 36.4285C39.8755 34.5675 38.361 33.0535 36.4999 33.0535ZM36.4999 37.8749C35.7008 37.8749 35.0535 37.2271 35.0535 36.4285C35.0535 35.6294 35.7014 34.9821 36.4999 34.9821C37.2985 34.9821 37.9463 35.6294 37.9463 36.4285C37.9463 37.2271 37.2991 37.8749 36.4999 37.8749ZM47.8736 36.4285C48.8108 35.2069 49.4834 33.9804 49.7968 32.8125C50.1602 31.4498 50.0342 30.1956 49.4315 29.185C48.3329 27.3468 45.7938 26.5959 42.59 26.8689C41.1887 23.2793 39.004 21 36.4999 21C33.9958 21 31.8111 23.2787 30.4105 26.8683C27.206 26.5953 24.6676 27.3462 23.5701 29.1856C22.9656 30.1956 22.8396 31.4498 23.2031 32.8125C23.5165 33.9804 24.189 35.2069 25.1262 36.4285C24.189 37.6501 23.5165 38.8766 23.2031 40.0446C22.8396 41.4072 22.9656 42.6614 23.5683 43.6721C24.5235 45.2692 26.5576 46.0539 29.1762 46.0539C29.5595 46.0539 29.9898 45.9846 30.3966 45.9508C31.7966 49.5621 33.9874 51.857 36.4999 51.857C39.0125 51.857 41.2032 49.5621 42.6032 45.9508C43.01 45.9846 43.4403 46.0539 43.8236 46.0539C46.4399 46.0539 48.4763 45.2692 49.4297 43.6721C50.0342 42.6614 50.1608 41.4072 49.7968 40.0446C49.4834 38.8766 48.8108 37.6501 47.8736 36.4285ZM25.0677 32.3134C24.8363 31.4546 24.8906 30.7344 25.2262 30.1739C25.7819 29.2416 27.1982 28.7287 29.1521 28.7287C29.3528 28.7287 29.5697 28.745 29.7813 28.7558C29.4468 29.9443 29.1925 31.2371 29.0237 32.6057C28.0576 33.3531 27.1753 34.1293 26.4129 34.923C25.7668 34.025 25.2895 33.1403 25.0677 32.3134ZM28.8122 37.5573C28.3993 37.1837 28.0154 36.8076 27.6592 36.4285C28.0148 36.0494 28.3993 35.6734 28.8122 35.2997C28.7995 35.674 28.7844 36.0464 28.7844 36.4285C28.7844 36.8106 28.7989 37.1831 28.8122 37.5573ZM25.2244 42.6831C24.8912 42.1226 24.8363 41.4024 25.0683 40.5436C25.2901 39.7167 25.7674 38.832 26.4129 37.934C27.1753 38.7277 28.0582 39.504 29.0237 40.2513C29.1925 41.6218 29.4474 42.9151 29.7819 44.1048C27.5086 44.2223 25.8398 43.7119 25.2244 42.6831ZM41.7854 31.0683C41.2803 30.7477 40.7669 30.4313 40.2293 30.1318C39.8418 29.9154 39.4542 29.7153 39.0673 29.52C39.8351 29.2898 40.5692 29.1175 41.2713 28.9897C41.4765 29.6738 41.6481 30.3675 41.7854 31.0683ZM36.4999 22.9286C37.9506 22.9286 39.4844 24.4973 40.6102 27.1455C39.3018 27.4052 37.9174 27.8181 36.5005 28.3719C35.083 27.8181 33.6987 27.404 32.3897 27.1443C33.5155 24.4967 35.0493 22.9286 36.4999 22.9286ZM31.7285 28.9897C32.4306 29.1175 33.1647 29.2892 33.9319 29.52C33.545 29.7153 33.1575 29.9154 32.7706 30.1318C32.233 30.4313 31.7195 30.7477 31.2144 31.0683C31.3518 30.3675 31.5233 29.6738 31.7285 28.9897ZM31.2144 41.7887C31.7195 42.1094 32.233 42.4258 32.7706 42.7253C33.1755 42.9513 33.5769 43.1164 33.9813 43.3195C33.1978 43.5564 32.4451 43.739 31.7291 43.8698C31.5339 43.2171 31.3585 42.5258 31.2144 41.7887ZM36.4999 49.9285C35.0438 49.9285 33.5034 48.3477 32.3764 45.6808C33.6914 45.4223 35.0746 45.0124 36.4999 44.4562C37.9252 45.013 39.3084 45.4223 40.6234 45.6808C39.4964 48.3477 37.956 49.9285 36.4999 49.9285ZM41.2713 43.8692C40.5559 43.739 39.8038 43.5564 39.0203 43.3195C39.4241 43.1164 39.8255 42.9513 40.2299 42.7259C40.7675 42.4264 41.2809 42.11 41.786 41.7893C41.6413 42.5252 41.4666 43.2159 41.2713 43.8692ZM42.1566 39.2051C41.2671 39.8511 40.3131 40.4725 39.2915 41.042C38.3453 41.57 37.413 42.0177 36.5011 42.4041C35.5887 42.0177 34.6557 41.57 33.7083 41.042C32.6868 40.4719 31.7327 39.8511 30.8432 39.2051C30.7594 38.3179 30.713 37.3922 30.713 36.4285C30.713 35.4648 30.7594 34.5391 30.8432 33.652C31.7327 33.0059 32.6868 32.3846 33.7083 31.815C34.6539 31.2877 35.5881 30.8339 36.4993 30.4476C37.4112 30.8339 38.3453 31.2877 39.2915 31.815C40.3131 32.3852 41.2671 33.0059 42.1566 33.652C42.2398 34.5391 42.2868 35.4648 42.2868 36.4285C42.2868 37.3922 42.2398 38.3179 42.1566 39.2051ZM43.8484 28.7281C45.8016 28.7281 47.2185 29.2416 47.776 30.1733C48.1093 30.7338 48.1641 31.454 47.9321 32.3128C47.7103 33.1397 47.233 34.0244 46.5875 34.9224C45.8251 34.1287 44.9422 33.3525 43.9767 32.6051C43.808 31.2359 43.5536 29.9437 43.2192 28.7552C43.4307 28.7444 43.6477 28.7281 43.8484 28.7281ZM44.1877 35.2997C44.6005 35.6734 44.9844 36.0494 45.3406 36.4285C44.9844 36.8076 44.6005 37.1837 44.1877 37.5573C44.2003 37.1831 44.2154 36.8106 44.2154 36.4285C44.2154 36.0464 44.2009 35.674 44.1877 35.2997ZM47.7736 42.6831C47.1613 43.7119 45.4925 44.2223 43.218 44.1036C43.553 42.9139 43.8074 41.6212 43.9761 40.2513C44.9422 39.504 45.8245 38.7277 46.5869 37.934C47.2324 38.832 47.7103 39.7167 47.9315 40.5436C48.1635 41.4024 48.1093 42.1226 47.7736 42.6831Z" fill="#F61067"/>
</svg>
