<svg width="100" height="100" viewBox="0 0 100 100" fill="none" xmlns="http://www.w3.org/2000/svg">
<path d="M79.1667 58.3333V75H70.8333V58.3333H79.1667ZM29.1667 58.3333V75H25C22.7083 75 20.8333 73.125 20.8333 70.8333V58.3333H29.1667ZM50 4.16663C29.2917 4.16663 12.5 20.9583 12.5 41.6666V70.8333C12.5 77.75 18.0833 83.3333 25 83.3333H37.5V50H20.8333V41.6666C20.8333 25.5416 33.875 12.5 50 12.5C66.125 12.5 79.1667 25.5416 79.1667 41.6666V50H62.5V83.3333H79.1667V87.5H50V95.8333H75C81.9167 95.8333 87.5 90.25 87.5 83.3333V41.6666C87.5 20.9583 70.7083 4.16663 50 4.16663Z" fill="#3077C6"/>
</svg>
