<svg width="100" height="100" viewBox="0 0 100 100" fill="none" xmlns="http://www.w3.org/2000/svg">
<path d="M87.5 33.3333H61.2083L65.1667 14.2916L65.2917 12.9583C65.2917 11.25 64.5833 9.66663 63.4583 8.54163L59.0417 4.16663L31.625 31.625C30.0833 33.125 29.1667 35.2083 29.1667 37.5V79.1666C29.1667 83.75 32.9167 87.5 37.5 87.5H75C78.4583 87.5 81.4167 85.4166 82.6667 82.4166L95.25 53.0416C95.625 52.0833 95.8333 51.0833 95.8333 50V41.6666C95.8333 37.0833 92.0833 33.3333 87.5 33.3333ZM87.5 50L75 79.1666H37.5V37.5L55.5833 19.4166L50.9583 41.6666H87.5V50ZM4.16666 37.5H20.8333V87.5H4.16666V37.5Z" fill="#3077C6"/>
</svg>
