<svg width="61" height="60" viewBox="0 0 61 60" fill="none" xmlns="http://www.w3.org/2000/svg">
<path d="M56.0044 12.7115H48.9814V12.5095C48.9814 8.87665 46.026 5.92118 42.3932 5.92118C38.7603 5.92118 35.8049 8.87665 35.8049 12.5095V12.7115H27.5571C24.8414 12.7115 22.6321 14.9209 22.6321 17.6365V23.2009H15.2458C13.4838 23.2009 11.9176 24.2562 11.2558 25.8893C11.2462 25.9133 11.2373 25.9375 11.2291 25.962L6.96808 38.8689C6.9294 38.8919 6.88007 38.9191 6.81866 38.9498C6.57503 39.0714 6.11929 39.2568 5.33507 39.4484C4.09062 39.7499 2.9839 40.4616 2.19323 41.4688C1.40255 42.4759 0.973964 43.72 0.976513 45.0004V51.0987C0.976513 53.1406 2.63765 54.8018 4.67952 54.8018L9.90374 54.802C10.4553 57.7562 13.0514 59.9999 16.1632 59.9999C19.2749 59.9999 21.8709 57.7561 22.4226 54.8021L40.8472 54.8024C41.3989 57.7564 43.9949 59.9999 47.1066 59.9999C50.2181 59.9999 52.8141 57.7565 53.3659 54.8026L56.6836 54.8027C59.2232 54.8027 60.9294 53.0963 60.9294 50.5568V20.08C60.9294 13.4295 57.4851 12.7115 56.0044 12.7115ZM38.1486 12.5095C38.1486 10.169 40.0527 8.26493 42.3932 8.26493C44.7336 8.26493 46.6377 10.169 46.6377 12.5095V12.7115H38.1486V12.5095ZM13.4413 26.7379C13.591 26.3833 13.8422 26.0809 14.1632 25.8686C14.4842 25.6563 14.8609 25.5436 15.2457 25.5447H22.6319V38.8266H9.45022L13.4413 26.7379ZM16.1632 57.6562C13.9435 57.6562 12.1377 55.8504 12.1377 53.6307C12.1377 53.6033 12.1392 53.5762 12.1398 53.5488C12.1406 53.5069 12.1408 53.465 12.143 53.4234C12.1433 53.4168 12.1441 53.4104 12.1445 53.4038C12.2626 51.2894 14.02 49.6052 16.1632 49.6052C18.1026 49.6052 19.7262 50.9841 20.105 52.8129L20.1067 52.82C20.1194 52.882 20.1305 52.9445 20.1403 53.0076L20.1422 53.018C20.1492 53.0638 20.1544 53.1101 20.1598 53.1564C20.1622 53.1775 20.1656 53.1983 20.1677 53.2194C20.1714 53.2554 20.1734 53.2921 20.176 53.3285C20.1784 53.3602 20.1817 53.3916 20.1833 53.4235C20.185 53.4563 20.185 53.4896 20.1858 53.5226C20.1867 53.5586 20.1885 53.5944 20.1885 53.6306C20.1887 55.8504 18.3828 57.6562 16.1632 57.6562ZM47.1066 57.6562C44.8869 57.6562 43.081 55.8504 43.081 53.6307C43.081 53.5783 43.083 53.5263 43.085 53.4743C43.0856 53.4576 43.0855 53.4405 43.0863 53.4238C43.0883 53.3852 43.0921 53.3471 43.0951 53.3088C43.0975 53.2791 43.0989 53.2491 43.1019 53.2196C43.1032 53.207 43.1053 53.1947 43.1066 53.1823C43.1202 53.06 43.1386 52.939 43.163 52.8203C43.1637 52.8168 43.1646 52.8134 43.1654 52.8099C43.5455 50.9826 45.168 49.6053 47.1066 49.6053C47.6614 49.6053 48.1905 49.7181 48.6719 49.9222C50.1163 50.5341 51.1319 51.966 51.1319 53.6308C51.1319 55.8504 49.3262 57.6562 47.1066 57.6562ZM56.6836 52.4588L53.3678 52.4587C53.3639 52.4379 53.3589 52.4175 53.3548 52.3968C53.3272 52.2591 53.2954 52.1222 53.2595 51.9864C53.2435 51.927 53.2267 51.8679 53.209 51.809C53.198 51.7724 53.1872 51.7358 53.1757 51.6994C53.156 51.6382 53.1353 51.5772 53.1137 51.5166C53.1022 51.4842 53.0913 51.4513 53.0793 51.4191C53.0531 51.3492 53.0257 51.2799 52.997 51.211C52.988 51.1892 52.9798 51.1669 52.9705 51.1452C52.9318 51.0542 52.891 50.9641 52.8482 50.875C52.8428 50.8639 52.8369 50.8532 52.8315 50.8422C52.7941 50.7656 52.7552 50.6897 52.7148 50.6146C52.6999 50.5871 52.6841 50.5602 52.6689 50.5329C52.6367 50.4749 52.6036 50.4175 52.5696 50.3606C52.5511 50.3297 52.5319 50.2995 52.5128 50.2689C52.4605 50.1846 52.4061 50.1016 52.3495 50.0201C52.2939 49.9395 52.2365 49.8602 52.1773 49.7821C52.1403 49.7337 52.1026 49.6858 52.0643 49.6385C52.0414 49.6102 52.0189 49.5819 51.9956 49.554C51.9539 49.5043 51.9114 49.4553 51.8682 49.4069C51.8469 49.383 51.8262 49.3585 51.8045 49.3349C51.7507 49.2763 51.6958 49.2188 51.6398 49.1623C51.6278 49.1501 51.6163 49.1374 51.6041 49.1253C51.535 49.0563 51.4644 48.989 51.3922 48.9233C51.3769 48.9092 51.3608 48.896 51.3452 48.882C51.2887 48.8315 51.2316 48.7815 51.1732 48.7329C51.1476 48.7116 51.1213 48.6912 51.0954 48.6704C51.046 48.6304 50.996 48.5911 50.9455 48.5525C50.9157 48.53 50.8856 48.5081 50.8555 48.4861C50.7281 48.3927 50.5972 48.3043 50.463 48.221C50.4302 48.2004 50.3973 48.1802 50.364 48.1602C50.3121 48.1292 50.2596 48.0993 50.2068 48.0698C50.1743 48.0516 50.1419 48.0331 50.1091 48.0155C50.0517 47.9847 49.9935 47.9553 49.935 47.9262C49.9059 47.9117 49.8772 47.8966 49.8479 47.8826C49.7713 47.8461 49.694 47.8111 49.616 47.7776C49.6041 47.7725 49.5923 47.7667 49.5803 47.7616C49.4896 47.7233 49.398 47.6871 49.3056 47.6531C49.2792 47.6433 49.2524 47.6348 49.2258 47.6254C49.1594 47.602 49.093 47.5789 49.0257 47.5575C48.9905 47.5464 48.9548 47.5363 48.9193 47.5258C48.8597 47.5081 48.7999 47.4906 48.7396 47.4746C48.7009 47.4643 48.662 47.4549 48.623 47.4453C48.5245 47.421 48.4254 47.3992 48.3259 47.3798C48.2669 47.3684 48.2078 47.3578 48.1485 47.348C48.1078 47.3413 48.0671 47.3345 48.0262 47.3287C47.9646 47.3199 47.9028 47.3121 47.841 47.3051C47.8017 47.3006 47.7626 47.2956 47.7231 47.2919C47.6545 47.2856 47.5859 47.2803 47.5172 47.2762C47.4835 47.2741 47.4503 47.271 47.4165 47.2694C47.3132 47.2643 47.2098 47.2617 47.1064 47.2615C47.0025 47.2615 46.8991 47.2645 46.7964 47.2694C46.7626 47.271 46.7292 47.2741 46.6956 47.2762C46.6268 47.2806 46.5581 47.2853 46.4899 47.2919C46.4503 47.2958 46.4112 47.3007 46.3718 47.3052C46.3099 47.3124 46.2482 47.3199 46.1869 47.3288C46.1459 47.3348 46.105 47.3415 46.0642 47.3483C45.9641 47.3649 45.8644 47.3838 45.7651 47.4049C45.7068 47.4175 45.6486 47.431 45.5906 47.4453C45.5512 47.4549 45.512 47.4645 45.473 47.4748C45.4132 47.4906 45.354 47.5079 45.295 47.5254C45.2589 47.5362 45.2225 47.5464 45.1867 47.5578C45.121 47.5788 45.0556 47.601 44.9906 47.6242C44.9627 47.6341 44.9345 47.6431 44.9067 47.6534C44.8146 47.6874 44.7234 47.7233 44.6334 47.7613C44.6185 47.7677 44.604 47.7747 44.5891 47.7812C44.514 47.8136 44.4395 47.847 44.3659 47.8822C44.3348 47.897 44.3045 47.913 44.2737 47.9283C44.2172 47.9566 44.1607 47.9849 44.1051 48.0147C44.0708 48.0331 44.0369 48.0524 44.003 48.0715C43.9518 48.1001 43.901 48.1293 43.8506 48.1592C43.7321 48.2304 43.6158 48.3051 43.5019 48.3833C43.4545 48.416 43.4076 48.4494 43.3611 48.4835C43.3291 48.5068 43.297 48.53 43.2655 48.5539C43.2173 48.5904 43.1701 48.6281 43.123 48.6659C43.0946 48.6888 43.0659 48.711 43.0379 48.7343C42.9838 48.7795 42.9308 48.826 42.8782 48.8727C42.8586 48.8901 42.8386 48.9069 42.8193 48.9244C42.7481 48.9892 42.6785 49.0556 42.6104 49.1235C42.5932 49.1406 42.5769 49.1587 42.5598 49.176C42.5093 49.2276 42.4591 49.2795 42.4103 49.3328C42.3859 49.3595 42.3623 49.387 42.3384 49.414C42.2982 49.4594 42.2583 49.5049 42.2194 49.5514C42.1941 49.5817 42.1694 49.6126 42.1447 49.6434C42.1086 49.6881 42.073 49.7331 42.0381 49.7788C41.9544 49.889 41.8742 50.0018 41.7975 50.1169C41.7655 50.165 41.7346 50.2137 41.704 50.2627C41.683 50.2962 41.6618 50.3296 41.6415 50.3635C41.6099 50.4161 41.5796 50.4695 41.5496 50.5232C41.5321 50.5545 41.5139 50.5854 41.4968 50.6172C41.4607 50.684 41.4264 50.752 41.3927 50.8202C41.3832 50.8394 41.373 50.858 41.3638 50.8774C41.3216 50.965 41.2815 51.0536 41.2434 51.143C41.2318 51.1703 41.2214 51.1982 41.2102 51.2258C41.1843 51.2889 41.1587 51.3523 41.1348 51.4165C41.1214 51.4524 41.1094 51.4887 41.0966 51.5247C41.0764 51.5817 41.057 51.6389 41.0384 51.6964C41.0258 51.7355 41.0142 51.7751 41.0024 51.8146C40.9736 51.911 40.9471 52.008 40.923 52.1056C40.9091 52.162 40.8961 52.2187 40.8837 52.2758C40.8746 52.3171 40.8657 52.3585 40.8575 52.4001C40.8537 52.4198 40.8489 52.4391 40.8452 52.4588L22.4241 52.4585C22.4202 52.4382 22.4154 52.4181 22.4114 52.3979C22.4035 52.3578 22.3949 52.3181 22.3863 52.2783C22.3523 52.1215 22.3122 51.9659 22.2662 51.8122C22.2548 51.774 22.2435 51.7358 22.2314 51.6978C22.2124 51.6389 22.1926 51.5804 22.1719 51.5221C22.1596 51.4872 22.1477 51.452 22.1348 51.4174C22.1104 51.3522 22.0848 51.2875 22.0581 51.2232C22.0473 51.1967 22.0372 51.1697 22.026 51.1435C21.9878 51.0538 21.9476 50.965 21.9053 50.8771C21.8967 50.8594 21.8873 50.8423 21.8787 50.8247C21.8444 50.7548 21.8089 50.6855 21.772 50.6169C21.7554 50.5859 21.7376 50.5556 21.7203 50.525C21.6899 50.4707 21.6593 50.4166 21.6273 50.3634C21.6071 50.3297 21.5862 50.2968 21.5654 50.2636C21.5347 50.2143 21.5034 50.1654 21.4713 50.1169C21.3946 50.0019 21.3144 49.8893 21.2309 49.7792C21.196 49.7335 21.1604 49.6885 21.1243 49.6438C21.0995 49.613 21.0748 49.582 21.0494 49.5516C21.0105 49.5055 20.971 49.4598 20.9309 49.4147C20.9067 49.3876 20.883 49.3599 20.8585 49.3331C20.8103 49.2803 20.7606 49.2289 20.7105 49.1778C20.693 49.1599 20.6762 49.1413 20.6584 49.1238C20.5904 49.0559 20.5209 48.9897 20.4499 48.925C20.4302 48.907 20.4096 48.89 20.3897 48.8722C20.3376 48.8255 20.2848 48.7798 20.2312 48.7349C20.2029 48.7114 20.1738 48.6888 20.1451 48.6657C20.0985 48.6282 20.0516 48.5908 20.0038 48.5546C19.972 48.5304 19.9397 48.5071 19.9075 48.4836C19.8612 48.4497 19.8145 48.4165 19.7674 48.3838C19.6868 48.3285 19.6049 48.2749 19.5219 48.2232C19.4875 48.2016 19.4528 48.1803 19.418 48.1594C19.3679 48.1296 19.3174 48.1006 19.2666 48.0722C19.2323 48.053 19.1982 48.0336 19.1635 48.0151C19.1082 47.9856 19.0525 47.957 18.9963 47.9293C18.9651 47.9137 18.9343 47.8975 18.9028 47.8824C18.8301 47.8478 18.7567 47.8146 18.6827 47.7827C18.6669 47.7758 18.6514 47.7683 18.6355 47.7615C18.5454 47.7234 18.4544 47.6875 18.3626 47.6536C18.3343 47.6432 18.3056 47.6341 18.2771 47.624C18.2127 47.601 18.1478 47.579 18.0826 47.558C18.0465 47.5465 18.0098 47.5362 17.9734 47.5254C17.9146 47.5078 17.8556 47.491 17.7963 47.4751C17.7571 47.4646 17.7176 47.455 17.6781 47.4454C17.5217 47.4067 17.3639 47.3743 17.2049 47.3484C17.1641 47.3417 17.1233 47.3349 17.0822 47.3289C17.0206 47.3202 16.9589 47.3123 16.8971 47.3054C16.8579 47.3008 16.8187 47.2959 16.7792 47.292C16.7107 47.2857 16.6421 47.2805 16.5734 47.2763C16.5397 47.2742 16.5064 47.2711 16.4727 47.2695C16.3694 47.2644 16.266 47.2618 16.1626 47.2617C16.0587 47.2617 15.9554 47.2646 15.8525 47.2695C15.8188 47.2711 15.7854 47.2742 15.7517 47.2763C15.683 47.2808 15.6143 47.2854 15.5461 47.292C15.5065 47.2959 15.4672 47.3008 15.4278 47.3054C15.3662 47.3123 15.3046 47.3202 15.2432 47.3289C15.2019 47.3349 15.161 47.3417 15.1201 47.3484C15.02 47.3648 14.9203 47.3837 14.8212 47.405C14.763 47.4175 14.7053 47.431 14.6476 47.4452C14.6079 47.4549 14.568 47.4646 14.5287 47.4751C14.4698 47.4909 14.4112 47.5076 14.3529 47.5251C14.3161 47.536 14.2791 47.5465 14.2425 47.558C14.178 47.5784 14.1143 47.6007 14.0507 47.6231C14.0212 47.6334 13.9916 47.6429 13.9624 47.6536C13.8708 47.6875 13.7801 47.7231 13.6905 47.761C13.6724 47.7687 13.6547 47.7773 13.6366 47.7851C13.565 47.8162 13.4938 47.8481 13.4235 47.8817C13.3907 47.8974 13.3585 47.9143 13.326 47.9306C13.2712 47.9577 13.2168 47.9855 13.1628 48.0142C13.1272 48.0333 13.0922 48.0534 13.0569 48.0732C13.0072 48.1011 12.9576 48.1292 12.9088 48.1585C12.8252 48.2086 12.7427 48.2604 12.6614 48.3141C12.6262 48.3373 12.5913 48.3608 12.5566 48.3847C12.5107 48.4163 12.4655 48.4488 12.4203 48.4816C12.3869 48.506 12.3533 48.5302 12.3204 48.5553C12.2743 48.5903 12.2291 48.6263 12.184 48.6625C12.1536 48.6869 12.1229 48.7107 12.0932 48.7356C12.0424 48.7778 11.993 48.8214 11.9436 48.8651C11.9207 48.8854 11.8972 48.9051 11.8745 48.9257C11.8043 48.9898 11.7355 49.0554 11.6681 49.1225C11.6473 49.1433 11.6273 49.1651 11.6067 49.1862C11.56 49.2342 11.5134 49.2822 11.4682 49.3315C11.4418 49.3602 11.4165 49.3899 11.3907 49.4191C11.3525 49.4623 11.3144 49.5056 11.2775 49.5499C11.2508 49.5817 11.2248 49.6143 11.1988 49.6468C11.1641 49.6897 11.13 49.7331 11.0965 49.777C11.0376 49.8544 10.9804 49.9332 10.925 50.0132C10.9007 50.0482 10.8767 50.0835 10.8531 50.1189C10.8223 50.1653 10.7925 50.2123 10.7628 50.2594C10.7408 50.2946 10.7187 50.3295 10.6973 50.3651C10.667 50.4156 10.638 50.467 10.6091 50.5183C10.5903 50.5517 10.571 50.5847 10.5527 50.6185C10.519 50.6817 10.4863 50.7454 10.4546 50.8097C10.4432 50.8327 10.431 50.8552 10.4198 50.8784C10.3781 50.9651 10.3384 51.0529 10.3005 51.1417C10.2876 51.172 10.2762 51.2028 10.2637 51.2333C10.2391 51.2936 10.2146 51.354 10.1919 51.4151C10.178 51.4525 10.1653 51.4904 10.1521 51.5281C10.1326 51.5835 10.1134 51.639 10.0955 51.695C10.0826 51.7352 10.0706 51.7757 10.0585 51.8163C10.0423 51.871 10.0264 51.9258 10.0116 51.9811C9.98547 52.0781 9.96183 52.1757 9.94065 52.2739C9.93151 52.3161 9.92237 52.3581 9.91405 52.4007C9.9103 52.4199 9.90561 52.4389 9.90198 52.4581H4.67952C3.92999 52.4581 3.32026 51.8484 3.32026 51.0987V45.0004C3.31869 44.2451 3.57146 43.5113 4.03784 42.9171C4.50422 42.323 5.15705 41.9032 5.89112 41.7254C6.55897 41.5621 7.13261 41.376 7.60101 41.1705H50.1626C50.8097 41.1705 51.3344 40.6458 51.3344 39.9986C51.3344 39.3515 50.8097 38.8267 50.1626 38.8267H24.9758V17.6365C24.9758 16.2133 26.1339 15.0552 27.5571 15.0552H56.0042C58.2503 15.0552 58.5855 18.2034 58.5855 20.08V50.5567C58.5855 52.2118 57.3939 52.4588 56.6836 52.4588Z" fill="#F1CDB3"/>
<path d="M51.4371 24.8147C51.4372 23.2763 50.3567 21.9863 48.9149 21.6615C48.9226 21.5806 48.9287 21.4992 48.9311 21.4169C48.9579 20.4633 48.6017 19.5567 47.9282 18.864C47.2432 18.1596 46.2866 17.7557 45.3034 17.7557C44.1154 17.7557 43.0573 18.3338 42.3948 19.2239C41.7328 18.3338 40.6738 17.7557 39.4831 17.7557C38.5086 17.7557 37.5586 18.1544 36.8767 18.8498C36.1995 19.5402 35.8367 20.4483 35.8552 21.4064C35.8568 21.4923 35.8627 21.5773 35.8703 21.6618C34.4291 21.987 33.3492 23.2766 33.3492 24.8147C33.3492 26.1163 34.1229 27.2399 35.2341 27.7519C34.4513 28.7206 33.9945 29.9464 33.9945 31.2423C33.9945 34.3028 36.4843 36.7927 39.5448 36.7927C40.5529 36.7927 41.537 36.5172 42.3932 36.0051C43.254 36.5202 44.2384 36.7924 45.2415 36.7927C48.302 36.7927 50.7919 34.3028 50.7919 31.2423C50.7919 29.9462 50.3351 28.7206 49.5523 27.7519C50.6636 27.2399 51.4371 26.1163 51.4371 24.8147ZM45.3034 20.0996C45.6574 20.0996 46.0016 20.2448 46.2478 20.4979C46.4762 20.7328 46.597 21.0357 46.5883 21.3508C46.568 22.0692 45.9856 22.6602 45.2898 22.6682C45.1034 22.668 44.9191 22.6279 44.7495 22.5505C44.7285 22.5408 44.7079 22.5304 44.6868 22.5209C44.58 22.4646 44.4823 22.3927 44.3966 22.3077C44.1518 22.0648 44.0177 21.7384 44.0191 21.3885C44.022 20.6778 44.5982 20.0996 45.3034 20.0996ZM38.5498 20.491C38.6712 20.3665 38.8163 20.2677 38.9766 20.2005C39.1369 20.1332 39.3091 20.0988 39.4829 20.0994C40.1903 20.0994 40.7664 20.6762 40.7672 21.3851C40.7681 21.5579 40.7343 21.7291 40.6678 21.8885C40.6013 22.048 40.5035 22.1925 40.3801 22.3135C40.2964 22.3959 40.2013 22.466 40.0978 22.5217C40.0595 22.5391 40.0221 22.5577 39.9843 22.5758C39.8315 22.6389 39.6675 22.6704 39.5023 22.6683C38.7969 22.6567 38.212 22.0704 38.1983 21.3613C38.192 21.0374 38.3169 20.7285 38.5498 20.491ZM35.693 24.8148C35.6929 24.3245 36.0918 23.9257 36.5818 23.9257C37.0722 23.9257 37.4709 24.3245 37.4709 24.8148C37.4709 24.9155 37.4534 25.0118 37.4224 25.1022C37.3931 25.1611 37.3649 25.2207 37.3377 25.2808C37.1809 25.5341 36.9012 25.7038 36.582 25.7038C36.0918 25.7038 35.693 25.305 35.693 24.8148ZM45.2415 34.4492C44.4765 34.4489 43.7368 34.175 43.1561 33.6769C42.9438 33.4945 42.6731 33.3943 42.3932 33.3946C42.1133 33.3944 41.8426 33.4946 41.6303 33.6769C41.0496 34.175 40.3099 34.4489 39.5448 34.4492C37.7767 34.4492 36.3382 33.0107 36.3382 31.2426C36.3382 29.9023 37.1833 28.6919 38.4409 28.2307C38.6472 28.1551 38.8281 28.023 38.9629 27.8495C39.0977 27.676 39.181 27.4681 39.2033 27.2495C39.2362 26.9273 39.3176 26.6118 39.4447 26.3139C39.4865 26.2346 39.5256 26.1537 39.5608 26.0707C39.8716 25.4851 40.3571 25.0108 40.9498 24.7136C41.0008 24.6912 41.0511 24.6676 41.1011 24.6428C41.5085 24.4648 41.9485 24.3731 42.3932 24.3737C42.8513 24.3737 43.2875 24.4692 43.6828 24.6417C43.7327 24.6665 43.7831 24.6899 43.8341 24.7123C44.4279 25.0094 44.9143 25.4843 45.2256 26.0707C45.2608 26.1537 45.2999 26.2346 45.3416 26.3139C45.4688 26.6118 45.5502 26.9273 45.583 27.2495C45.6053 27.4681 45.6886 27.676 45.8235 27.8495C45.9583 28.023 46.1391 28.1551 46.3454 28.2307C47.6031 28.692 48.4481 29.9023 48.4481 31.2426C48.4481 33.0106 47.0097 34.4492 45.2415 34.4492ZM48.2045 25.7038C47.8853 25.7038 47.6056 25.5341 47.4488 25.2808C47.4216 25.2208 47.3933 25.1612 47.364 25.1022C47.3321 25.0097 47.3157 24.9126 47.3155 24.8148C47.3155 24.3245 47.7143 23.9257 48.2046 23.9257C48.6948 23.9257 49.0936 24.3245 49.0936 24.8148C49.0935 25.3049 48.6947 25.7038 48.2045 25.7038Z" fill="#F1CDB3"/>
<path d="M56.0193 39.7758C56.0043 39.7007 55.9819 39.6273 55.9526 39.5566C55.9234 39.4857 55.8873 39.4178 55.8448 39.3539C55.8026 39.2897 55.7539 39.23 55.6995 39.1758C55.6452 39.1214 55.5856 39.0727 55.5214 39.0305C55.3933 38.9457 55.25 38.8864 55.0995 38.8559C54.9487 38.8254 54.7933 38.8254 54.6425 38.8559C54.5675 38.8712 54.4936 38.8934 54.4221 38.9227C54.3518 38.952 54.2839 38.9884 54.2206 39.0305C54.1561 39.0727 54.0964 39.1219 54.0425 39.1758C53.9884 39.2297 53.9392 39.2895 53.896 39.3539C53.8538 39.4172 53.8173 39.4852 53.7893 39.5566C53.76 39.627 53.7366 39.7008 53.7225 39.7758C53.7073 39.8508 53.6991 39.9281 53.6991 40.0043C53.6991 40.0803 53.7073 40.1578 53.7225 40.234C53.7366 40.3078 53.76 40.3816 53.7893 40.4531C53.8186 40.5234 53.855 40.5914 53.8971 40.6547C53.9392 40.7191 53.9884 40.7789 54.0425 40.8328C54.0964 40.8867 54.1561 40.9359 54.2206 40.9793C54.2839 41.0215 54.3518 41.0566 54.4221 41.0859C54.4936 41.1152 54.5675 41.1387 54.6425 41.1527C54.7176 41.168 54.7949 41.1762 54.871 41.1762C54.9471 41.1762 55.0246 41.168 55.0995 41.1527C55.1745 41.1387 55.2483 41.1152 55.3186 41.0859C55.3901 41.0566 55.4581 41.0215 55.5214 40.9793C55.5859 40.9359 55.6457 40.8867 55.6995 40.8328C55.7534 40.7789 55.8026 40.7191 55.8448 40.6547C55.8869 40.5914 55.9233 40.5234 55.9526 40.4531C55.9819 40.3816 56.0041 40.3078 56.0193 40.234C56.0346 40.1578 56.0427 40.0803 56.0427 40.0043C56.0427 39.9281 56.0346 39.8508 56.0193 39.7758Z" fill="#F1CDB3"/>
<path d="M42.3932 0C41.7461 0 41.2213 0.524648 41.2213 1.17188V3.13359C41.2213 3.78082 41.7461 4.30547 42.3932 4.30547C43.0404 4.30547 43.565 3.7807 43.565 3.13359V1.17188C43.565 0.524648 43.0404 0 42.3932 0Z" fill="#F1CDB3"/>
<path d="M37.4562 4.55659L35.8205 3.27234C35.6995 3.1773 35.5609 3.10703 35.4127 3.06555C35.2645 3.02407 35.1096 3.01218 34.9568 3.03057C34.804 3.04896 34.6563 3.09727 34.5222 3.17273C34.3881 3.24819 34.2701 3.34934 34.1751 3.47038C33.7755 3.97944 33.8642 4.71608 34.3731 5.11569L36.0088 6.39995C36.2149 6.56221 36.4695 6.65035 36.7318 6.65015C36.9095 6.65039 37.0849 6.61017 37.2447 6.53253C37.4046 6.45488 37.5446 6.34186 37.6543 6.20202C38.054 5.69284 37.9653 4.9562 37.4562 4.55659Z" fill="#F1CDB3"/>
<path d="M50.6113 3.47021C50.2117 2.96115 49.4752 2.87244 48.9659 3.27216L47.3302 4.55642C46.8211 4.95603 46.7324 5.69267 47.1321 6.20185C47.2417 6.34177 47.3818 6.45487 47.5416 6.53254C47.7015 6.61021 47.8769 6.65042 48.0546 6.6501C48.3169 6.65028 48.5716 6.56214 48.7776 6.3999L50.4133 5.11564C50.9224 4.71603 51.0111 3.97939 50.6113 3.47021Z" fill="#F1CDB3"/>
</svg>
