<svg width="92" height="84" viewBox="0 0 92 84" fill="none" xmlns="http://www.w3.org/2000/svg">
<path d="M83.5 29.3333H57.2084L61.1667 10.2916L61.2917 8.95829C61.2917 7.24996 60.5834 5.66663 59.4584 4.54163L55.0417 0.166626L27.625 27.625C26.0834 29.125 25.1667 31.2083 25.1667 33.5V75.1666C25.1667 79.75 28.9167 83.5 33.5 83.5H71C74.4583 83.5 77.4167 81.4166 78.6667 78.4166L91.25 49.0416C91.625 48.0833 91.8334 47.0833 91.8334 46V37.6666C91.8334 33.0833 88.0833 29.3333 83.5 29.3333ZM83.5 46L71 75.1666H33.5V33.5L51.5834 15.4166L46.9584 37.6666H83.5V46ZM0.166687 33.5H16.8334V83.5H0.166687V33.5Z" fill="#3077C6"/>
</svg>
