<svg width="344" height="100" viewBox="0 0 344 100" fill="none" xmlns="http://www.w3.org/2000/svg">
<path d="M8.28351 52.4219H12.3471V13.5937H20.6306V9.45312H0V13.5937H8.28351V52.4219Z" fill="white"/>
<path d="M90.3372 13.5937H98.5425V52.4219H102.919V13.5937H111.202V9.45312H90.3372V13.5937Z" fill="white"/>
<path d="M49.5448 48.2812H36.1817V29.6094H45.8719V25.2344H36.1817V13.5937H49.5448V9.45312H31.8055V52.4219H49.5448V48.2812Z" fill="white"/>
<path d="M250.537 29.6094H262.728V52.4219H267.026V9.45312H262.728V25.2344H250.537V9.45312H246.161V52.4219H250.537V29.6094Z" fill="white"/>
<path d="M309.069 9.45312H304.692V52.6563H309.069V9.45312Z" fill="white"/>
<path d="M192.005 13.5937H192.474L200.211 52.4219H204.587L196.069 9.45312H191.693C189.739 9.45312 188.02 10.9375 187.786 12.5781L180.049 52.4219H184.425L192.005 13.5937Z" fill="white"/>
<path d="M333.138 5.85938C336.264 5.85938 338.999 4.14062 340.171 1.25L337.201 0C336.264 2.1875 334.544 2.65625 333.06 2.65625C331.809 2.65625 330.168 2.1875 328.918 0L326.026 1.25C327.511 4.14062 329.934 5.85938 333.138 5.85938Z" fill="white"/>
<path d="M327.042 37.1094L339.155 25.9375V52.4219H343.531V9.45312H339.155V20.1562L327.042 31.3281V9.45312H322.901V52.4219H327.042V37.1094Z" fill="white"/>
<path d="M65.7992 40.7813H77.2086L79.6311 52.4219H84.0073L75.2549 9.45312H70.8787C68.9251 9.45312 67.2058 10.9375 66.9714 12.5781L59.2349 52.4219H63.6111L65.7992 40.7813ZM71.3476 13.5937H71.8946L76.5053 36.6406H66.737L71.3476 13.5937Z" fill="white"/>
<path d="M153.948 40.7813H165.358L167.78 52.4219H171.922L163.404 9.45312H159.028C157.074 9.45312 155.355 10.9375 155.12 12.5781L147.384 52.4219H151.76L153.948 40.7813ZM159.497 13.5937H159.731L164.342 36.6406H154.652L159.497 13.5937Z" fill="white"/>
<path d="M221.388 25.2344L219.669 23.9844V9.45312H215.293V52.6563H227.953C232.094 52.6563 235.22 49.5313 235.22 45.625C235.22 38.3594 230.922 31.7969 221.388 25.2344ZM227.953 48.2813H219.669V29.1406C227.171 34.6875 231.079 40.0781 231.079 45.3906C231.157 46.875 229.672 48.2813 227.953 48.2813Z" fill="white"/>
<path d="M141.992 16.4844C141.992 12.5781 138.632 9.45312 134.724 9.45312H122.065V52.6563H126.441V38.125L128.16 36.875C137.381 30.0781 141.992 23.5156 141.992 16.4844ZM137.694 16.4844C137.694 21.7969 134.021 27.1875 126.284 32.7344V13.5938H134.568C136.443 13.5938 137.694 15.0781 137.694 16.4844Z" fill="white"/>
<path d="M286.953 25.2344L285.234 23.9844V9.45312H280.858V52.6563H293.518C297.659 52.6563 300.785 49.5313 300.785 45.625C300.785 38.3594 296.175 31.7969 286.953 25.2344ZM293.283 48.2813H285V29.1406C292.502 34.6875 296.409 40.0781 296.409 45.3906C296.409 46.875 295.002 48.2813 293.283 48.2813Z" fill="white"/>
<path d="M344 67.9688H0.468872V70.1562H344V67.9688Z" fill="white"/>
<path d="M62.6733 100V96.875H54.6243V100H52.4362V95.1563H53.6865C54.6243 93.4375 55.4057 90.0781 55.4057 86.6406V84.6875H63.4548V95.1563H64.8614V100H62.6733ZM61.1886 86.6406H57.5157V87.3438C57.5157 90.4688 56.8124 93.6719 56.0309 95.0781H61.1104V86.6406H61.1886Z" fill="white"/>
<path d="M80.8814 90.7812C80.8814 94.6875 78.4589 97.1094 75.0205 97.1094C71.582 97.1094 69.1595 94.4531 69.1595 90.7812C69.1595 87.1094 71.3476 84.4531 75.0205 84.4531C78.3807 84.4531 80.8814 87.1094 80.8814 90.7812ZM71.1131 90.7812C71.1131 93.6719 72.5979 95.3906 74.786 95.3906C76.9741 95.3906 78.4589 93.4375 78.4589 90.7812C78.4589 87.8906 76.9741 86.1719 74.786 86.1719C72.5979 86.1719 71.1131 88.125 71.1131 90.7812Z" fill="white"/>
<path d="M98.7769 97.1094H96.9014V87.6562L93.5411 97.1094H91.8219L88.4616 87.6562V97.1094H86.5079V85H89.3994L92.7596 94.4531L96.1199 85H99.0113V97.1094H98.7769Z" fill="white"/>
<path d="M122.846 97.1094H120.658V91.5625H115.109V97.1094H112.921V85H115.109V89.8437H120.658V85H122.846V97.1094Z" fill="white"/>
<path d="M139.1 97.1094H136.912L135.662 93.9844H130.817L129.567 97.1094H127.378L131.989 85H134.177L139.1 97.1094ZM133.318 86.875L131.364 91.9531H135.037L133.318 86.875Z" fill="white"/>
<path d="M161.919 97.1094H159.731V86.6406H154.183V97.1094H151.995V85H161.919C161.919 84.9219 161.919 97.1094 161.919 97.1094Z" fill="white"/>
<path d="M178.955 90.7812C178.955 94.6875 176.532 97.1094 173.094 97.1094C169.656 97.1094 167.233 94.4531 167.233 90.7812C167.233 87.1094 169.421 84.4531 173.094 84.4531C176.532 84.4531 178.955 87.1094 178.955 90.7812ZM169.499 90.7812C169.499 93.6719 170.984 95.3906 173.172 95.3906C175.36 95.3906 176.845 93.4375 176.845 90.7812C176.845 87.8906 175.36 86.1719 173.172 86.1719C170.906 86.1719 169.499 88.125 169.499 90.7812Z" fill="white"/>
<path d="M189.895 84.6875C192.552 84.6875 193.803 85.9375 193.803 87.8125C193.803 89.0625 193.099 90 192.084 90.4688C193.568 90.7031 194.272 91.9531 194.272 93.3594C194.272 95.5469 192.552 97.0313 190.364 97.0313H184.034V84.9219H189.895V84.6875ZM186.457 89.8438H189.348C191.068 89.8438 191.771 89.375 191.771 88.125C191.771 86.6406 190.521 86.4063 189.348 86.4063H186.457V89.8438ZM186.457 95.1563H189.583C191.068 95.1563 192.24 94.9219 192.24 93.2031C192.24 91.4844 190.99 91.25 189.583 91.25H186.457V95.1563Z" fill="white"/>
<path d="M210.214 97.1094H208.025L206.775 93.9844H201.93L200.68 97.1094H198.492L203.102 85H205.29L210.214 97.1094ZM204.431 86.875L202.477 91.9531H206.15L204.431 86.875Z" fill="white"/>
<path d="M220.216 84.6875C222.639 84.6875 224.592 85.9375 224.592 88.3594C224.592 90.7813 223.108 92.2656 220.685 92.2656H217.325V96.875H215.137V84.7656H220.216V84.6875ZM217.012 90.5469H219.904C221.388 90.5469 222.326 90.0781 222.326 88.5938C222.326 86.875 221.076 86.6406 219.904 86.6406H217.012V90.5469Z" fill="white"/>
<path d="M234.751 97.3437C231.391 97.3437 228.891 94.9219 228.891 91.0156C228.891 87.6563 231.079 84.6875 234.751 84.6875C237.174 84.6875 239.362 86.1719 239.831 88.8281H237.643C237.408 87.3438 236.158 86.4063 234.751 86.4063C232.094 86.4063 231.079 88.8281 231.079 91.0156C231.079 93.2031 232.016 95.625 234.751 95.625C236.705 95.625 237.643 94.375 237.877 92.5H240.065C239.909 95.3906 237.955 97.3437 234.751 97.3437Z" fill="white"/>
<path d="M250.771 89.5313L255.851 96.7969H253.194L249.052 90.9375L247.333 92.6563V96.7969H245.145V84.6875H247.333V90.2344L252.647 84.6875H255.304L250.771 89.5313Z" fill="white"/>
<path d="M271.715 90.7812C271.715 94.6875 269.292 97.1094 265.854 97.1094C262.415 97.1094 259.993 94.4531 259.993 90.7812C259.993 87.1094 262.181 84.4531 265.854 84.4531C269.214 84.4531 271.715 87.1094 271.715 90.7812ZM261.946 90.7812C261.946 93.6719 263.431 95.3906 265.619 95.3906C267.807 95.3906 269.292 93.4375 269.292 90.7812C269.292 87.8906 267.807 86.1719 265.619 86.1719C263.431 86.1719 261.946 88.125 261.946 90.7812Z" fill="white"/>
<path d="M277.029 84.6875H279.217V94.1406L284.531 84.6875H286.953V96.875H284.765V87.4219L279.451 96.875H277.029V84.6875ZM281.874 83.9844C280.154 83.9844 279.217 83.2813 278.982 81.5625H279.92C280.154 82.5 280.623 82.8125 281.874 82.8125C283.124 82.8125 283.593 82.3438 283.827 81.5625H284.765C284.531 83.2813 283.593 83.9844 281.874 83.9844Z" fill="white"/>
</svg>