<svg width="175" height="30" viewBox="0 0 175 30" fill="none" xmlns="http://www.w3.org/2000/svg">
<g clip-path="url(#clip0)">
<path d="M105.2 0L74.4 30H83L105.2 8.4L127.5 30H136.1L105.2 0Z" fill="#E82C2B"/>
<path d="M34.1 7.19995H0V30H5.7V12.7H28.4L34.1 7.19995Z" fill="white"/>
<path d="M170.7 24.7H146.7C145.5 24.7 143.6 24 143.6 22.1V15.2C143.6 13.2 145.3 12.8 146.7 12.8H170.7L175.1 7.40002H145.1C141 7.40002 138.2 10.2 138 14.4V22V23.8C138 27.1 141.2 30 145.1 30H175.1L170.7 24.7Z" fill="white"/>
<path d="M39.1 21L46.9 13.4L54.7 21H39.1ZM71.5 30L47 6.09998L22.4 30H29.9L34.1 26H59.8L64 30H71.5Z" fill="white"/>
</g>
<defs>
<clipPath id="clip0">
<rect width="175" height="30" fill="white"/>
</clipPath>
</defs>
</svg>
