<?xml version="1.0" encoding="iso-8859-1"?>
<!-- Generator: Adobe Illustrator 18.1.1, SVG Export Plug-In . SVG Version: 6.00 Build 0)  -->
<svg version="1.1" id="Capa_1" xmlns="http://www.w3.org/2000/svg" xmlns:xlink="http://www.w3.org/1999/xlink" x="0px" y="0px"
	 viewBox="0 0 424.717 424.717" style="enable-background:new 0 0 424.717 424.717;" xml:space="preserve">
<g>
	<g>
		<path d="M5.1,200.207c-0.283,0.283-0.567,0.567-0.567,0.567c-0.283,0.283-0.283,0.283-0.567,0.567
			c-0.283,0.283-0.283,0.567-0.567,0.85c-0.283,0.283-0.283,0.283-0.567,0.567c-0.283,0.283-0.283,0.567-0.567,0.85
			c0,0.283-0.283,0.283-0.283,0.567c-0.283,0.283-0.283,0.567-0.567,1.133c0,0.283-0.283,0.283-0.283,0.567
			c-0.283,0.283-0.283,0.85-0.567,1.133v0.283c-0.283,0.567-0.283,0.85-0.283,1.417v0.283c0,0.567-0.283,0.85-0.283,1.417v0.283
			c0,0.567,0,1.133,0,1.7c0,0.567,0,1.133,0,1.7v0.283c0,0.567,0,0.85,0.283,1.417v0.283c0,0.567,0.283,0.85,0.283,1.417v0.283
			c0.283,0.283,0.283,0.85,0.567,1.133c0,0.283,0.283,0.283,0.283,0.567c0.283,0.283,0.283,0.85,0.567,1.133
			c0,0.283,0.283,0.283,0.283,0.567c0.283,0.283,0.283,0.567,0.567,0.85c0,0.283,0.283,0.283,0.567,0.567
			c0.283,0.283,0.283,0.567,0.567,0.85c0.283,0.283,0.283,0.283,0.567,0.567c0.283,0.283,0.567,0.567,0.567,0.567l0.283,0.283
			L162.917,365.39c3.117,2.833,7.367,4.25,11.333,4.25c4.817,0,9.35-1.983,12.75-5.667c6.233-7.083,5.667-17.85-1.417-24.083
			L61.2,229.673h346.517c9.35,0,17-7.65,17-17c0-9.35-7.65-17-17-17H61.2L185.3,84.89c7.083-6.233,7.65-17,1.417-24.083
			s-17-7.65-24.083-1.417L5.383,199.923C5.383,200.207,5.1,200.207,5.1,200.207z"/>
	</g>
</g>
<g>
</g>
<g>
</g>
<g>
</g>
<g>
</g>
<g>
</g>
<g>
</g>
<g>
</g>
<g>
</g>
<g>
</g>
<g>
</g>
<g>
</g>
<g>
</g>
<g>
</g>
<g>
</g>
<g>
</g>
</svg>
