<svg width="186" height="37" viewBox="0 0 186 37" fill="none" xmlns="http://www.w3.org/2000/svg">
<path d="M1.48 10.36C1.29333 10.0667 1.12 9.66667 0.96 9.16C0.8 8.65333 0.72 8.12 0.72 7.56C0.72 6.52 0.946667 5.77333 1.4 5.32C1.88 4.86667 2.49333 4.64 3.24 4.64H20.68C20.8667 4.93333 21.04 5.33333 21.2 5.84C21.36 6.34667 21.44 6.88 21.44 7.44C21.44 8.48 21.2 9.22667 20.72 9.68C20.2667 10.1333 19.6667 10.36 18.92 10.36H14.48V28.84C14.1867 28.92 13.72 29 13.08 29.08C12.4667 29.16 11.8533 29.2 11.24 29.2C10.6267 29.2 10.08 29.1467 9.6 29.04C9.14667 28.96 8.76 28.8 8.44 28.56C8.12 28.32 7.88 27.9867 7.72 27.56C7.56 27.1333 7.48 26.5733 7.48 25.88V10.36H1.48ZM29.505 28.96C29.2383 29.04 28.8117 29.12 28.225 29.2C27.665 29.28 27.0783 29.32 26.465 29.32C25.8783 29.32 25.345 29.28 24.865 29.2C24.4117 29.12 24.025 28.96 23.705 28.72C23.385 28.48 23.1317 28.16 22.945 27.76C22.785 27.3333 22.705 26.7867 22.705 26.12V14.12C22.705 13.5067 22.8117 12.9867 23.025 12.56C23.265 12.1067 23.5983 11.7067 24.025 11.36C24.4517 11.0133 24.9717 10.7067 25.585 10.44C26.225 10.1467 26.905 9.89333 27.625 9.68C28.345 9.46667 29.0917 9.30667 29.865 9.2C30.6383 9.06667 31.4117 9 32.185 9C33.465 9 34.4783 9.25333 35.225 9.76C35.9717 10.24 36.345 11.04 36.345 12.16C36.345 12.5333 36.2917 12.9067 36.185 13.28C36.0783 13.6267 35.945 13.9467 35.785 14.24C35.225 14.24 34.6517 14.2667 34.065 14.32C33.4783 14.3733 32.905 14.4533 32.345 14.56C31.785 14.6667 31.2517 14.7867 30.745 14.92C30.265 15.0267 29.8517 15.16 29.505 15.32V28.96ZM38.9903 4.16C38.9903 3.14666 39.3236 2.29333 39.9903 1.6C40.6836 0.906665 41.5903 0.559999 42.7103 0.559999C43.8303 0.559999 44.7236 0.906665 45.3903 1.6C46.0836 2.29333 46.4303 3.14666 46.4303 4.16C46.4303 5.17333 46.0836 6.02667 45.3903 6.72C44.7236 7.41333 43.8303 7.76 42.7103 7.76C41.5903 7.76 40.6836 7.41333 39.9903 6.72C39.3236 6.02667 38.9903 5.17333 38.9903 4.16ZM46.1103 28.96C45.817 29.0133 45.377 29.08 44.7903 29.16C44.2303 29.2667 43.657 29.32 43.0703 29.32C42.4836 29.32 41.9503 29.28 41.4703 29.2C41.017 29.12 40.6303 28.96 40.3103 28.72C39.9903 28.48 39.737 28.16 39.5503 27.76C39.3903 27.3333 39.3103 26.7867 39.3103 26.12V9.84C39.6036 9.78667 40.0303 9.72 40.5903 9.64C41.177 9.53333 41.7636 9.48 42.3503 9.48C42.937 9.48 43.457 9.52 43.9103 9.6C44.3903 9.68 44.7903 9.84 45.1103 10.08C45.4303 10.32 45.6703 10.6533 45.8303 11.08C46.017 11.48 46.1103 12.0133 46.1103 12.68V28.96ZM59.3594 8.96C60.9594 8.96 62.4394 9.17333 63.7994 9.6C65.186 10 66.3727 10.6267 67.3594 11.48C68.346 12.3333 69.1194 13.4133 69.6794 14.72C70.2394 16 70.5194 17.5333 70.5194 19.32C70.5194 21.0267 70.2794 22.52 69.7994 23.8C69.3194 25.08 68.6394 26.16 67.7594 27.04C66.8794 27.8933 65.8127 28.5333 64.5594 28.96C63.3327 29.3867 61.9594 29.6 60.4394 29.6C59.2927 29.6 58.226 29.4267 57.2394 29.08V35.72C56.9727 35.8 56.546 35.88 55.9594 35.96C55.3727 36.0667 54.7727 36.12 54.1594 36.12C53.5727 36.12 53.0394 36.08 52.5594 36C52.106 35.92 51.7194 35.76 51.3994 35.52C51.0794 35.28 50.8394 34.9467 50.6794 34.52C50.5194 34.12 50.4394 33.5867 50.4394 32.92V13.72C50.4394 13 50.586 12.4133 50.8794 11.96C51.1994 11.5067 51.626 11.0933 52.1594 10.72C52.986 10.1867 54.0127 9.76 55.2394 9.44C56.466 9.12 57.8394 8.96 59.3594 8.96ZM59.4394 24.24C62.186 24.24 63.5594 22.6 63.5594 19.32C63.5594 17.6133 63.2127 16.3467 62.5194 15.52C61.8527 14.6933 60.8794 14.28 59.5994 14.28C59.0927 14.28 58.6394 14.3467 58.2394 14.48C57.8394 14.5867 57.4927 14.72 57.1994 14.88V23.68C57.5194 23.84 57.866 23.9733 58.2394 24.08C58.6127 24.1867 59.0127 24.24 59.4394 24.24ZM96.0378 28.84C95.7445 28.92 95.2778 29 94.6378 29.08C94.0245 29.16 93.4111 29.2 92.7978 29.2C92.1845 29.2 91.6378 29.1467 91.1578 29.04C90.7045 28.96 90.3178 28.8 89.9978 28.56C89.6778 28.32 89.4378 27.9867 89.2778 27.56C89.1178 27.1333 89.0378 26.5733 89.0378 25.88V19.64H81.3578V28.84C81.0645 28.92 80.5978 29 79.9578 29.08C79.3445 29.16 78.7311 29.2 78.1178 29.2C77.5045 29.2 76.9578 29.1467 76.4778 29.04C76.0245 28.96 75.6378 28.8 75.3178 28.56C74.9978 28.32 74.7578 27.9867 74.5978 27.56C74.4378 27.1333 74.3578 26.5733 74.3578 25.88V4.76C74.6511 4.70667 75.1178 4.64 75.7578 4.56C76.3978 4.45333 77.0111 4.4 77.5978 4.4C78.2111 4.4 78.7445 4.45333 79.1978 4.56C79.6778 4.64 80.0778 4.8 80.3978 5.04C80.7178 5.28 80.9578 5.61333 81.1178 6.04C81.2778 6.46667 81.3578 7.02667 81.3578 7.72V14.12H89.0378V4.76C89.3311 4.70667 89.7978 4.64 90.4378 4.56C91.0778 4.45333 91.6911 4.4 92.2778 4.4C92.8911 4.4 93.4245 4.45333 93.8778 4.56C94.3578 4.64 94.7578 4.8 95.0778 5.04C95.3978 5.28 95.6378 5.61333 95.7978 6.04C95.9578 6.46667 96.0378 7.02667 96.0378 7.72V28.84ZM120.833 19.28C120.833 20.9333 120.579 22.4133 120.073 23.72C119.566 25 118.846 26.08 117.913 26.96C117.006 27.84 115.913 28.5067 114.633 28.96C113.353 29.4133 111.926 29.64 110.353 29.64C108.779 29.64 107.353 29.4 106.073 28.92C104.793 28.44 103.686 27.76 102.753 26.88C101.846 25.9733 101.139 24.88 100.633 23.6C100.126 22.32 99.8728 20.88 99.8728 19.28C99.8728 17.7067 100.126 16.28 100.633 15C101.139 13.72 101.846 12.64 102.753 11.76C103.686 10.8533 104.793 10.16 106.073 9.68C107.353 9.2 108.779 8.96 110.353 8.96C111.926 8.96 113.353 9.21333 114.633 9.72C115.913 10.2 117.006 10.8933 117.913 11.8C118.846 12.68 119.566 13.76 120.073 15.04C120.579 16.32 120.833 17.7333 120.833 19.28ZM106.833 19.28C106.833 20.9067 107.139 22.16 107.753 23.04C108.393 23.8933 109.273 24.32 110.393 24.32C111.513 24.32 112.366 23.88 112.953 23C113.566 22.12 113.873 20.88 113.873 19.28C113.873 17.68 113.566 16.4533 112.953 15.6C112.339 14.72 111.473 14.28 110.353 14.28C109.233 14.28 108.366 14.72 107.753 15.6C107.139 16.4533 106.833 17.68 106.833 19.28ZM124.15 9.84C124.417 9.76 124.83 9.68 125.39 9.6C125.977 9.52 126.577 9.48 127.19 9.48C127.777 9.48 128.297 9.52 128.75 9.6C129.23 9.68 129.63 9.84 129.95 10.08C130.27 10.32 130.51 10.6533 130.67 11.08C130.857 11.48 130.95 12.0133 130.95 12.68V21.28C130.95 22.3733 131.217 23.16 131.75 23.64C132.284 24.0933 133.057 24.32 134.07 24.32C134.684 24.32 135.177 24.2667 135.55 24.16C135.95 24.0533 136.257 23.9467 136.47 23.84V9.84C136.737 9.76 137.15 9.68 137.71 9.6C138.297 9.52 138.897 9.48 139.51 9.48C140.097 9.48 140.617 9.52 141.07 9.6C141.55 9.68 141.95 9.84 142.27 10.08C142.59 10.32 142.83 10.6533 142.99 11.08C143.177 11.48 143.27 12.0133 143.27 12.68V24.84C143.27 26.1733 142.71 27.1733 141.59 27.84C140.657 28.4267 139.537 28.8667 138.23 29.16C136.95 29.48 135.55 29.64 134.03 29.64C132.59 29.64 131.257 29.48 130.03 29.16C128.83 28.84 127.79 28.3467 126.91 27.68C126.03 27.0133 125.35 26.16 124.87 25.12C124.39 24.0533 124.15 22.7733 124.15 21.28V9.84ZM163.832 23.2C163.832 25.2267 163.072 26.8133 161.552 27.96C160.032 29.1067 157.792 29.68 154.832 29.68C153.712 29.68 152.672 29.6 151.712 29.44C150.752 29.28 149.925 29.04 149.232 28.72C148.565 28.3733 148.032 27.9467 147.632 27.44C147.258 26.9333 147.072 26.3333 147.072 25.64C147.072 25 147.205 24.4667 147.472 24.04C147.738 23.5867 148.058 23.2133 148.432 22.92C149.205 23.3467 150.085 23.7333 151.072 24.08C152.085 24.4 153.245 24.56 154.552 24.56C155.378 24.56 156.005 24.44 156.432 24.2C156.885 23.96 157.112 23.64 157.112 23.24C157.112 22.8667 156.952 22.5733 156.632 22.36C156.312 22.1467 155.778 21.9733 155.032 21.84L153.832 21.6C151.512 21.1467 149.778 20.44 148.632 19.48C147.512 18.4933 146.952 17.0933 146.952 15.28C146.952 14.2933 147.165 13.4 147.592 12.6C148.018 11.8 148.618 11.1333 149.392 10.6C150.165 10.0667 151.085 9.65333 152.152 9.36C153.245 9.06667 154.445 8.92 155.752 8.92C156.738 8.92 157.658 9 158.512 9.16C159.392 9.29333 160.152 9.50667 160.792 9.8C161.432 10.0933 161.938 10.48 162.312 10.96C162.685 11.4133 162.872 11.96 162.872 12.6C162.872 13.2133 162.752 13.7467 162.512 14.2C162.298 14.6267 162.018 14.9867 161.672 15.28C161.458 15.1467 161.138 15.0133 160.712 14.88C160.285 14.72 159.818 14.5867 159.312 14.48C158.805 14.3467 158.285 14.24 157.752 14.16C157.245 14.08 156.778 14.04 156.352 14.04C155.472 14.04 154.792 14.1467 154.312 14.36C153.832 14.5467 153.592 14.8533 153.592 15.28C153.592 15.5733 153.725 15.8133 153.992 16C154.258 16.1867 154.765 16.36 155.512 16.52L156.752 16.8C159.312 17.3867 161.125 18.2 162.192 19.24C163.285 20.2533 163.832 21.5733 163.832 23.2ZM177.594 29.64C176.021 29.64 174.554 29.4267 173.194 29C171.861 28.5467 170.688 27.88 169.674 27C168.688 26.12 167.901 25.0133 167.314 23.68C166.754 22.3467 166.474 20.7867 166.474 19C166.474 17.24 166.754 15.7333 167.314 14.48C167.901 13.2 168.661 12.16 169.594 11.36C170.528 10.5333 171.594 9.93333 172.794 9.56C173.994 9.16 175.221 8.96 176.474 8.96C177.888 8.96 179.168 9.17333 180.314 9.6C181.488 10.0267 182.488 10.6133 183.314 11.36C184.168 12.1067 184.821 13 185.274 14.04C185.754 15.08 185.994 16.2133 185.994 17.44C185.994 18.3467 185.741 19.04 185.234 19.52C184.728 20 184.021 20.3067 183.114 20.44L173.234 21.92C173.528 22.8 174.128 23.4667 175.034 23.92C175.941 24.3467 176.981 24.56 178.154 24.56C179.248 24.56 180.274 24.4267 181.234 24.16C182.221 23.8667 183.021 23.5333 183.634 23.16C184.061 23.4267 184.421 23.8 184.714 24.28C185.008 24.76 185.154 25.2667 185.154 25.8C185.154 27 184.594 27.8933 183.474 28.48C182.621 28.9333 181.661 29.24 180.594 29.4C179.528 29.56 178.528 29.64 177.594 29.64ZM176.474 13.92C175.834 13.92 175.274 14.0267 174.794 14.24C174.341 14.4533 173.968 14.7333 173.674 15.08C173.381 15.4 173.154 15.7733 172.994 16.2C172.861 16.6 172.781 17.0133 172.754 17.44L179.594 16.32C179.514 15.7867 179.221 15.2533 178.714 14.72C178.208 14.1867 177.461 13.92 176.474 13.92Z" fill="#3077C6"/>
</svg>
